<mxfile host="app.diagrams.net" modified="2024-06-24T03:44:33.746Z" agent="Mozilla/5.0 (Macintosh; Intel Mac OS X 10_15_7) AppleWebKit/537.36 (KHTML, like Gecko) Chrome/126.0.0.0 Safari/537.36" etag="PI8n2SfxKEbsH_AhNmlO" version="24.6.2" type="github" pages="3">
  <diagram name="第 1 页" id="-LowXklH0KBSZvzuVanQ">
    <mxGraphModel dx="1985" dy="2207" grid="1" gridSize="10" guides="1" tooltips="1" connect="1" arrows="1" fold="1" page="1" pageScale="1" pageWidth="827" pageHeight="1169" math="0" shadow="0">
      <root>
        <mxCell id="0" />
        <mxCell id="1" parent="0" />
        <mxCell id="tB7VLj_1fxb0ntuLeQnr-53" style="edgeStyle=orthogonalEdgeStyle;rounded=0;orthogonalLoop=1;jettySize=auto;html=1;" parent="1" source="tB7VLj_1fxb0ntuLeQnr-1" target="tB7VLj_1fxb0ntuLeQnr-2" edge="1">
          <mxGeometry relative="1" as="geometry" />
        </mxCell>
        <mxCell id="tB7VLj_1fxb0ntuLeQnr-1" value="成为更好的&lt;br&gt;自己" style="rounded=0;whiteSpace=wrap;html=1;" parent="1" vertex="1">
          <mxGeometry x="560" y="-520" width="80" height="40" as="geometry" />
        </mxCell>
        <mxCell id="tB7VLj_1fxb0ntuLeQnr-56" style="edgeStyle=orthogonalEdgeStyle;rounded=0;orthogonalLoop=1;jettySize=auto;html=1;entryX=0;entryY=0.5;entryDx=0;entryDy=0;" parent="1" source="tB7VLj_1fxb0ntuLeQnr-2" target="tB7VLj_1fxb0ntuLeQnr-54" edge="1">
          <mxGeometry relative="1" as="geometry" />
        </mxCell>
        <mxCell id="tB7VLj_1fxb0ntuLeQnr-57" style="edgeStyle=orthogonalEdgeStyle;rounded=0;orthogonalLoop=1;jettySize=auto;html=1;" parent="1" source="tB7VLj_1fxb0ntuLeQnr-2" target="tB7VLj_1fxb0ntuLeQnr-55" edge="1">
          <mxGeometry relative="1" as="geometry" />
        </mxCell>
        <mxCell id="tB7VLj_1fxb0ntuLeQnr-2" value="更好的成为&lt;br&gt;自己" style="rounded=0;whiteSpace=wrap;html=1;" parent="1" vertex="1">
          <mxGeometry x="720" y="-520" width="80" height="40" as="geometry" />
        </mxCell>
        <mxCell id="tB7VLj_1fxb0ntuLeQnr-10" style="edgeStyle=orthogonalEdgeStyle;rounded=0;orthogonalLoop=1;jettySize=auto;html=1;" parent="1" source="tB7VLj_1fxb0ntuLeQnr-4" target="tB7VLj_1fxb0ntuLeQnr-5" edge="1">
          <mxGeometry relative="1" as="geometry" />
        </mxCell>
        <mxCell id="w1q24iZh5yq6yeS4lfcn-1" style="edgeStyle=orthogonalEdgeStyle;rounded=0;orthogonalLoop=1;jettySize=auto;html=1;" parent="1" source="tB7VLj_1fxb0ntuLeQnr-4" target="tB7VLj_1fxb0ntuLeQnr-28" edge="1">
          <mxGeometry relative="1" as="geometry" />
        </mxCell>
        <mxCell id="tB7VLj_1fxb0ntuLeQnr-4" value="优绩主义" style="rounded=0;whiteSpace=wrap;html=1;" parent="1" vertex="1">
          <mxGeometry x="400" y="-840" width="80" height="40" as="geometry" />
        </mxCell>
        <mxCell id="tB7VLj_1fxb0ntuLeQnr-11" value="要求" style="edgeStyle=orthogonalEdgeStyle;rounded=0;orthogonalLoop=1;jettySize=auto;html=1;entryX=0;entryY=0.5;entryDx=0;entryDy=0;" parent="1" source="tB7VLj_1fxb0ntuLeQnr-5" target="tB7VLj_1fxb0ntuLeQnr-1" edge="1">
          <mxGeometry relative="1" as="geometry" />
        </mxCell>
        <mxCell id="tB7VLj_1fxb0ntuLeQnr-16" style="edgeStyle=orthogonalEdgeStyle;rounded=0;orthogonalLoop=1;jettySize=auto;html=1;entryX=1;entryY=0.5;entryDx=0;entryDy=0;" parent="1" source="tB7VLj_1fxb0ntuLeQnr-5" target="tB7VLj_1fxb0ntuLeQnr-12" edge="1">
          <mxGeometry relative="1" as="geometry" />
        </mxCell>
        <mxCell id="tB7VLj_1fxb0ntuLeQnr-17" style="edgeStyle=orthogonalEdgeStyle;rounded=0;orthogonalLoop=1;jettySize=auto;html=1;entryX=1;entryY=0.5;entryDx=0;entryDy=0;" parent="1" source="tB7VLj_1fxb0ntuLeQnr-5" target="tB7VLj_1fxb0ntuLeQnr-13" edge="1">
          <mxGeometry relative="1" as="geometry" />
        </mxCell>
        <mxCell id="tB7VLj_1fxb0ntuLeQnr-18" style="edgeStyle=orthogonalEdgeStyle;rounded=0;orthogonalLoop=1;jettySize=auto;html=1;entryX=1;entryY=0.5;entryDx=0;entryDy=0;" parent="1" source="tB7VLj_1fxb0ntuLeQnr-5" target="tB7VLj_1fxb0ntuLeQnr-14" edge="1">
          <mxGeometry relative="1" as="geometry" />
        </mxCell>
        <mxCell id="HAOmo5m4X4N3UOVxJmDS-2" value="" style="edgeStyle=orthogonalEdgeStyle;rounded=0;orthogonalLoop=1;jettySize=auto;html=1;" parent="1" source="tB7VLj_1fxb0ntuLeQnr-5" target="HAOmo5m4X4N3UOVxJmDS-1" edge="1">
          <mxGeometry relative="1" as="geometry" />
        </mxCell>
        <mxCell id="tB7VLj_1fxb0ntuLeQnr-5" value="社会期待" style="rounded=0;whiteSpace=wrap;html=1;" parent="1" vertex="1">
          <mxGeometry x="400" y="-600" width="80" height="40" as="geometry" />
        </mxCell>
        <mxCell id="tB7VLj_1fxb0ntuLeQnr-9" value="诱惑" style="edgeStyle=orthogonalEdgeStyle;rounded=0;orthogonalLoop=1;jettySize=auto;html=1;" parent="1" source="tB7VLj_1fxb0ntuLeQnr-6" target="tB7VLj_1fxb0ntuLeQnr-1" edge="1">
          <mxGeometry relative="1" as="geometry">
            <Array as="points">
              <mxPoint x="520" y="-420" />
              <mxPoint x="520" y="-500" />
            </Array>
          </mxGeometry>
        </mxCell>
        <mxCell id="tB7VLj_1fxb0ntuLeQnr-45" style="edgeStyle=orthogonalEdgeStyle;rounded=0;orthogonalLoop=1;jettySize=auto;html=1;entryX=1;entryY=0.5;entryDx=0;entryDy=0;" parent="1" source="tB7VLj_1fxb0ntuLeQnr-6" target="tB7VLj_1fxb0ntuLeQnr-40" edge="1">
          <mxGeometry relative="1" as="geometry" />
        </mxCell>
        <mxCell id="tB7VLj_1fxb0ntuLeQnr-46" style="edgeStyle=orthogonalEdgeStyle;rounded=0;orthogonalLoop=1;jettySize=auto;html=1;entryX=1;entryY=0.5;entryDx=0;entryDy=0;" parent="1" source="tB7VLj_1fxb0ntuLeQnr-6" target="tB7VLj_1fxb0ntuLeQnr-39" edge="1">
          <mxGeometry relative="1" as="geometry" />
        </mxCell>
        <mxCell id="tB7VLj_1fxb0ntuLeQnr-47" style="edgeStyle=orthogonalEdgeStyle;rounded=0;orthogonalLoop=1;jettySize=auto;html=1;entryX=1;entryY=0.5;entryDx=0;entryDy=0;" parent="1" source="tB7VLj_1fxb0ntuLeQnr-6" target="tB7VLj_1fxb0ntuLeQnr-37" edge="1">
          <mxGeometry relative="1" as="geometry" />
        </mxCell>
        <mxCell id="HAOmo5m4X4N3UOVxJmDS-3" value="" style="edgeStyle=orthogonalEdgeStyle;rounded=0;orthogonalLoop=1;jettySize=auto;html=1;" parent="1" source="tB7VLj_1fxb0ntuLeQnr-6" target="HAOmo5m4X4N3UOVxJmDS-1" edge="1">
          <mxGeometry relative="1" as="geometry" />
        </mxCell>
        <mxCell id="tB7VLj_1fxb0ntuLeQnr-6" value="超常刺激" style="rounded=0;whiteSpace=wrap;html=1;" parent="1" vertex="1">
          <mxGeometry x="400" y="-440" width="80" height="40" as="geometry" />
        </mxCell>
        <mxCell id="tB7VLj_1fxb0ntuLeQnr-8" style="edgeStyle=orthogonalEdgeStyle;rounded=0;orthogonalLoop=1;jettySize=auto;html=1;" parent="1" source="tB7VLj_1fxb0ntuLeQnr-7" target="tB7VLj_1fxb0ntuLeQnr-6" edge="1">
          <mxGeometry relative="1" as="geometry" />
        </mxCell>
        <mxCell id="tB7VLj_1fxb0ntuLeQnr-35" style="edgeStyle=orthogonalEdgeStyle;rounded=0;orthogonalLoop=1;jettySize=auto;html=1;" parent="1" source="tB7VLj_1fxb0ntuLeQnr-7" target="tB7VLj_1fxb0ntuLeQnr-33" edge="1">
          <mxGeometry relative="1" as="geometry" />
        </mxCell>
        <mxCell id="tB7VLj_1fxb0ntuLeQnr-7" value="消费主义" style="rounded=0;whiteSpace=wrap;html=1;" parent="1" vertex="1">
          <mxGeometry x="400" y="-200" width="80" height="40" as="geometry" />
        </mxCell>
        <mxCell id="tB7VLj_1fxb0ntuLeQnr-24" style="edgeStyle=orthogonalEdgeStyle;rounded=0;orthogonalLoop=1;jettySize=auto;html=1;" parent="1" source="tB7VLj_1fxb0ntuLeQnr-12" target="tB7VLj_1fxb0ntuLeQnr-20" edge="1">
          <mxGeometry relative="1" as="geometry" />
        </mxCell>
        <mxCell id="tB7VLj_1fxb0ntuLeQnr-12" value="父母" style="rounded=0;whiteSpace=wrap;html=1;" parent="1" vertex="1">
          <mxGeometry x="240" y="-760" width="80" height="40" as="geometry" />
        </mxCell>
        <mxCell id="tB7VLj_1fxb0ntuLeQnr-25" style="edgeStyle=orthogonalEdgeStyle;rounded=0;orthogonalLoop=1;jettySize=auto;html=1;" parent="1" source="tB7VLj_1fxb0ntuLeQnr-13" target="tB7VLj_1fxb0ntuLeQnr-21" edge="1">
          <mxGeometry relative="1" as="geometry" />
        </mxCell>
        <mxCell id="tB7VLj_1fxb0ntuLeQnr-13" value="学校" style="rounded=0;whiteSpace=wrap;html=1;" parent="1" vertex="1">
          <mxGeometry x="240" y="-680" width="80" height="40" as="geometry" />
        </mxCell>
        <mxCell id="tB7VLj_1fxb0ntuLeQnr-26" style="edgeStyle=orthogonalEdgeStyle;rounded=0;orthogonalLoop=1;jettySize=auto;html=1;" parent="1" source="tB7VLj_1fxb0ntuLeQnr-14" target="tB7VLj_1fxb0ntuLeQnr-22" edge="1">
          <mxGeometry relative="1" as="geometry" />
        </mxCell>
        <mxCell id="tB7VLj_1fxb0ntuLeQnr-14" value="社会" style="rounded=0;whiteSpace=wrap;html=1;" parent="1" vertex="1">
          <mxGeometry x="240" y="-600" width="80" height="40" as="geometry" />
        </mxCell>
        <mxCell id="tB7VLj_1fxb0ntuLeQnr-20" value="好好读书" style="rounded=0;whiteSpace=wrap;html=1;" parent="1" vertex="1">
          <mxGeometry x="80" y="-760" width="80" height="40" as="geometry" />
        </mxCell>
        <mxCell id="tB7VLj_1fxb0ntuLeQnr-21" value="唯成绩论" style="rounded=0;whiteSpace=wrap;html=1;" parent="1" vertex="1">
          <mxGeometry x="80" y="-680" width="80" height="40" as="geometry" />
        </mxCell>
        <mxCell id="tB7VLj_1fxb0ntuLeQnr-22" value="收入=地位" style="rounded=0;whiteSpace=wrap;html=1;" parent="1" vertex="1">
          <mxGeometry x="80" y="-600" width="80" height="40" as="geometry" />
        </mxCell>
        <mxCell id="w1q24iZh5yq6yeS4lfcn-2" style="edgeStyle=orthogonalEdgeStyle;rounded=0;orthogonalLoop=1;jettySize=auto;html=1;" parent="1" source="tB7VLj_1fxb0ntuLeQnr-28" target="tB7VLj_1fxb0ntuLeQnr-29" edge="1">
          <mxGeometry relative="1" as="geometry" />
        </mxCell>
        <mxCell id="tB7VLj_1fxb0ntuLeQnr-28" value="成绩&amp;amp;成就" style="rounded=0;whiteSpace=wrap;html=1;" parent="1" vertex="1">
          <mxGeometry x="240" y="-840" width="80" height="40" as="geometry" />
        </mxCell>
        <mxCell id="tB7VLj_1fxb0ntuLeQnr-29" value="人生价值&lt;br&gt;&amp;amp;意义" style="rounded=0;whiteSpace=wrap;html=1;" parent="1" vertex="1">
          <mxGeometry x="80" y="-840" width="80" height="40" as="geometry" />
        </mxCell>
        <mxCell id="tB7VLj_1fxb0ntuLeQnr-36" style="edgeStyle=orthogonalEdgeStyle;rounded=0;orthogonalLoop=1;jettySize=auto;html=1;" parent="1" source="tB7VLj_1fxb0ntuLeQnr-33" target="tB7VLj_1fxb0ntuLeQnr-34" edge="1">
          <mxGeometry relative="1" as="geometry" />
        </mxCell>
        <mxCell id="tB7VLj_1fxb0ntuLeQnr-33" value="享乐&amp;amp;奢侈" style="rounded=0;whiteSpace=wrap;html=1;" parent="1" vertex="1">
          <mxGeometry x="240" y="-200" width="80" height="40" as="geometry" />
        </mxCell>
        <mxCell id="tB7VLj_1fxb0ntuLeQnr-34" value="自我实现&amp;amp;&lt;br&gt;身份认同" style="rounded=0;whiteSpace=wrap;html=1;" parent="1" vertex="1">
          <mxGeometry x="80" y="-200" width="80" height="40" as="geometry" />
        </mxCell>
        <mxCell id="tB7VLj_1fxb0ntuLeQnr-51" style="edgeStyle=orthogonalEdgeStyle;rounded=0;orthogonalLoop=1;jettySize=auto;html=1;" parent="1" source="tB7VLj_1fxb0ntuLeQnr-37" target="tB7VLj_1fxb0ntuLeQnr-42" edge="1">
          <mxGeometry relative="1" as="geometry" />
        </mxCell>
        <mxCell id="tB7VLj_1fxb0ntuLeQnr-37" value="社交媒体" style="rounded=0;whiteSpace=wrap;html=1;" parent="1" vertex="1">
          <mxGeometry x="240" y="-280" width="80" height="40" as="geometry" />
        </mxCell>
        <mxCell id="tB7VLj_1fxb0ntuLeQnr-50" style="edgeStyle=orthogonalEdgeStyle;rounded=0;orthogonalLoop=1;jettySize=auto;html=1;" parent="1" source="tB7VLj_1fxb0ntuLeQnr-39" target="tB7VLj_1fxb0ntuLeQnr-41" edge="1">
          <mxGeometry relative="1" as="geometry" />
        </mxCell>
        <mxCell id="tB7VLj_1fxb0ntuLeQnr-39" value="电子游戏" style="rounded=0;whiteSpace=wrap;html=1;" parent="1" vertex="1">
          <mxGeometry x="240" y="-360" width="80" height="40" as="geometry" />
        </mxCell>
        <mxCell id="tB7VLj_1fxb0ntuLeQnr-49" style="edgeStyle=orthogonalEdgeStyle;rounded=0;orthogonalLoop=1;jettySize=auto;html=1;entryX=1;entryY=0.5;entryDx=0;entryDy=0;" parent="1" source="tB7VLj_1fxb0ntuLeQnr-40" target="tB7VLj_1fxb0ntuLeQnr-44" edge="1">
          <mxGeometry relative="1" as="geometry" />
        </mxCell>
        <mxCell id="tB7VLj_1fxb0ntuLeQnr-40" value="快餐美食" style="rounded=0;whiteSpace=wrap;html=1;" parent="1" vertex="1">
          <mxGeometry x="240" y="-440" width="80" height="40" as="geometry" />
        </mxCell>
        <mxCell id="tB7VLj_1fxb0ntuLeQnr-41" value="及时反馈" style="rounded=0;whiteSpace=wrap;html=1;" parent="1" vertex="1">
          <mxGeometry x="80" y="-360" width="80" height="40" as="geometry" />
        </mxCell>
        <mxCell id="tB7VLj_1fxb0ntuLeQnr-42" value="赞赏认同" style="rounded=0;whiteSpace=wrap;html=1;" parent="1" vertex="1">
          <mxGeometry x="80" y="-280" width="80" height="40" as="geometry" />
        </mxCell>
        <mxCell id="tB7VLj_1fxb0ntuLeQnr-44" value="糖与热量" style="rounded=0;whiteSpace=wrap;html=1;" parent="1" vertex="1">
          <mxGeometry x="80" y="-440" width="80" height="40" as="geometry" />
        </mxCell>
        <mxCell id="tB7VLj_1fxb0ntuLeQnr-61" style="edgeStyle=orthogonalEdgeStyle;rounded=0;orthogonalLoop=1;jettySize=auto;html=1;entryX=0;entryY=0.5;entryDx=0;entryDy=0;" parent="1" source="tB7VLj_1fxb0ntuLeQnr-54" target="tB7VLj_1fxb0ntuLeQnr-58" edge="1">
          <mxGeometry relative="1" as="geometry" />
        </mxCell>
        <mxCell id="tB7VLj_1fxb0ntuLeQnr-62" style="edgeStyle=orthogonalEdgeStyle;rounded=0;orthogonalLoop=1;jettySize=auto;html=1;entryX=0;entryY=0.5;entryDx=0;entryDy=0;" parent="1" source="tB7VLj_1fxb0ntuLeQnr-54" target="tB7VLj_1fxb0ntuLeQnr-59" edge="1">
          <mxGeometry relative="1" as="geometry" />
        </mxCell>
        <mxCell id="tB7VLj_1fxb0ntuLeQnr-63" style="edgeStyle=orthogonalEdgeStyle;rounded=0;orthogonalLoop=1;jettySize=auto;html=1;" parent="1" source="tB7VLj_1fxb0ntuLeQnr-54" target="tB7VLj_1fxb0ntuLeQnr-60" edge="1">
          <mxGeometry relative="1" as="geometry" />
        </mxCell>
        <mxCell id="tB7VLj_1fxb0ntuLeQnr-54" value="自我觉察" style="rounded=0;whiteSpace=wrap;html=1;" parent="1" vertex="1">
          <mxGeometry x="880" y="-560" width="80" height="40" as="geometry" />
        </mxCell>
        <mxCell id="tB7VLj_1fxb0ntuLeQnr-73" style="edgeStyle=orthogonalEdgeStyle;rounded=0;orthogonalLoop=1;jettySize=auto;html=1;" parent="1" source="tB7VLj_1fxb0ntuLeQnr-55" target="tB7VLj_1fxb0ntuLeQnr-70" edge="1">
          <mxGeometry relative="1" as="geometry" />
        </mxCell>
        <mxCell id="tB7VLj_1fxb0ntuLeQnr-74" style="edgeStyle=orthogonalEdgeStyle;rounded=0;orthogonalLoop=1;jettySize=auto;html=1;entryX=0;entryY=0.5;entryDx=0;entryDy=0;" parent="1" source="tB7VLj_1fxb0ntuLeQnr-55" target="tB7VLj_1fxb0ntuLeQnr-71" edge="1">
          <mxGeometry relative="1" as="geometry" />
        </mxCell>
        <mxCell id="tB7VLj_1fxb0ntuLeQnr-75" style="edgeStyle=orthogonalEdgeStyle;rounded=0;orthogonalLoop=1;jettySize=auto;html=1;entryX=0;entryY=0.5;entryDx=0;entryDy=0;" parent="1" source="tB7VLj_1fxb0ntuLeQnr-55" target="tB7VLj_1fxb0ntuLeQnr-72" edge="1">
          <mxGeometry relative="1" as="geometry" />
        </mxCell>
        <mxCell id="tB7VLj_1fxb0ntuLeQnr-55" value="自我实现" style="rounded=0;whiteSpace=wrap;html=1;" parent="1" vertex="1">
          <mxGeometry x="880" y="-480" width="80" height="40" as="geometry" />
        </mxCell>
        <mxCell id="tB7VLj_1fxb0ntuLeQnr-67" style="edgeStyle=orthogonalEdgeStyle;rounded=0;orthogonalLoop=1;jettySize=auto;html=1;entryX=0;entryY=0.5;entryDx=0;entryDy=0;" parent="1" source="tB7VLj_1fxb0ntuLeQnr-58" target="tB7VLj_1fxb0ntuLeQnr-64" edge="1">
          <mxGeometry relative="1" as="geometry" />
        </mxCell>
        <mxCell id="w1q24iZh5yq6yeS4lfcn-10" style="edgeStyle=orthogonalEdgeStyle;rounded=0;orthogonalLoop=1;jettySize=auto;html=1;entryX=0;entryY=0.5;entryDx=0;entryDy=0;" parent="1" source="tB7VLj_1fxb0ntuLeQnr-58" target="w1q24iZh5yq6yeS4lfcn-9" edge="1">
          <mxGeometry relative="1" as="geometry" />
        </mxCell>
        <mxCell id="tB7VLj_1fxb0ntuLeQnr-58" value="愿景" style="rounded=0;whiteSpace=wrap;html=1;" parent="1" vertex="1">
          <mxGeometry x="1040" y="-880" width="80" height="40" as="geometry" />
        </mxCell>
        <mxCell id="tB7VLj_1fxb0ntuLeQnr-68" style="edgeStyle=orthogonalEdgeStyle;rounded=0;orthogonalLoop=1;jettySize=auto;html=1;" parent="1" source="tB7VLj_1fxb0ntuLeQnr-59" target="tB7VLj_1fxb0ntuLeQnr-65" edge="1">
          <mxGeometry relative="1" as="geometry" />
        </mxCell>
        <mxCell id="w1q24iZh5yq6yeS4lfcn-12" style="edgeStyle=orthogonalEdgeStyle;rounded=0;orthogonalLoop=1;jettySize=auto;html=1;entryX=0;entryY=0.5;entryDx=0;entryDy=0;" parent="1" source="tB7VLj_1fxb0ntuLeQnr-59" target="w1q24iZh5yq6yeS4lfcn-11" edge="1">
          <mxGeometry relative="1" as="geometry" />
        </mxCell>
        <mxCell id="tB7VLj_1fxb0ntuLeQnr-59" value="天赋" style="rounded=0;whiteSpace=wrap;html=1;" parent="1" vertex="1">
          <mxGeometry x="1040" y="-720" width="80" height="40" as="geometry" />
        </mxCell>
        <mxCell id="tB7VLj_1fxb0ntuLeQnr-69" style="edgeStyle=orthogonalEdgeStyle;rounded=0;orthogonalLoop=1;jettySize=auto;html=1;" parent="1" source="tB7VLj_1fxb0ntuLeQnr-60" target="tB7VLj_1fxb0ntuLeQnr-66" edge="1">
          <mxGeometry relative="1" as="geometry" />
        </mxCell>
        <mxCell id="w1q24iZh5yq6yeS4lfcn-14" style="edgeStyle=orthogonalEdgeStyle;rounded=0;orthogonalLoop=1;jettySize=auto;html=1;entryX=0;entryY=0.5;entryDx=0;entryDy=0;" parent="1" source="tB7VLj_1fxb0ntuLeQnr-60" target="w1q24iZh5yq6yeS4lfcn-13" edge="1">
          <mxGeometry relative="1" as="geometry" />
        </mxCell>
        <mxCell id="tB7VLj_1fxb0ntuLeQnr-60" value="信念" style="rounded=0;whiteSpace=wrap;html=1;" parent="1" vertex="1">
          <mxGeometry x="1040" y="-560" width="80" height="40" as="geometry" />
        </mxCell>
        <mxCell id="tB7VLj_1fxb0ntuLeQnr-64" value="生命故事" style="rounded=0;whiteSpace=wrap;html=1;" parent="1" vertex="1">
          <mxGeometry x="1201" y="-880" width="80" height="40" as="geometry" />
        </mxCell>
        <mxCell id="tB7VLj_1fxb0ntuLeQnr-65" value="内隐自我" style="rounded=0;whiteSpace=wrap;html=1;" parent="1" vertex="1">
          <mxGeometry x="1201" y="-720" width="80" height="40" as="geometry" />
        </mxCell>
        <mxCell id="tB7VLj_1fxb0ntuLeQnr-66" value="思维模型" style="rounded=0;whiteSpace=wrap;html=1;" parent="1" vertex="1">
          <mxGeometry x="1200.5" y="-560" width="80" height="40" as="geometry" />
        </mxCell>
        <mxCell id="tB7VLj_1fxb0ntuLeQnr-79" style="edgeStyle=orthogonalEdgeStyle;rounded=0;orthogonalLoop=1;jettySize=auto;html=1;" parent="1" source="tB7VLj_1fxb0ntuLeQnr-70" target="tB7VLj_1fxb0ntuLeQnr-76" edge="1">
          <mxGeometry relative="1" as="geometry" />
        </mxCell>
        <mxCell id="w1q24iZh5yq6yeS4lfcn-4" style="edgeStyle=orthogonalEdgeStyle;rounded=0;orthogonalLoop=1;jettySize=auto;html=1;entryX=0;entryY=0.5;entryDx=0;entryDy=0;" parent="1" source="tB7VLj_1fxb0ntuLeQnr-70" target="w1q24iZh5yq6yeS4lfcn-3" edge="1">
          <mxGeometry relative="1" as="geometry" />
        </mxCell>
        <mxCell id="tB7VLj_1fxb0ntuLeQnr-70" value="过去" style="rounded=0;whiteSpace=wrap;html=1;" parent="1" vertex="1">
          <mxGeometry x="1040" y="-480" width="80" height="40" as="geometry" />
        </mxCell>
        <mxCell id="tB7VLj_1fxb0ntuLeQnr-80" style="edgeStyle=orthogonalEdgeStyle;rounded=0;orthogonalLoop=1;jettySize=auto;html=1;" parent="1" source="tB7VLj_1fxb0ntuLeQnr-71" target="tB7VLj_1fxb0ntuLeQnr-77" edge="1">
          <mxGeometry relative="1" as="geometry">
            <Array as="points">
              <mxPoint x="1160" y="-300" />
              <mxPoint x="1160" y="-220" />
            </Array>
          </mxGeometry>
        </mxCell>
        <mxCell id="w1q24iZh5yq6yeS4lfcn-6" style="edgeStyle=orthogonalEdgeStyle;rounded=0;orthogonalLoop=1;jettySize=auto;html=1;entryX=0;entryY=0.5;entryDx=0;entryDy=0;" parent="1" source="tB7VLj_1fxb0ntuLeQnr-71" target="w1q24iZh5yq6yeS4lfcn-5" edge="1">
          <mxGeometry relative="1" as="geometry" />
        </mxCell>
        <mxCell id="tB7VLj_1fxb0ntuLeQnr-71" value="现在" style="rounded=0;whiteSpace=wrap;html=1;" parent="1" vertex="1">
          <mxGeometry x="1039.5" y="-320" width="80" height="40" as="geometry" />
        </mxCell>
        <mxCell id="tB7VLj_1fxb0ntuLeQnr-81" style="edgeStyle=orthogonalEdgeStyle;rounded=0;orthogonalLoop=1;jettySize=auto;html=1;" parent="1" source="tB7VLj_1fxb0ntuLeQnr-72" target="tB7VLj_1fxb0ntuLeQnr-78" edge="1">
          <mxGeometry relative="1" as="geometry" />
        </mxCell>
        <mxCell id="w1q24iZh5yq6yeS4lfcn-8" style="edgeStyle=orthogonalEdgeStyle;rounded=0;orthogonalLoop=1;jettySize=auto;html=1;entryX=0;entryY=0.5;entryDx=0;entryDy=0;" parent="1" source="tB7VLj_1fxb0ntuLeQnr-72" target="w1q24iZh5yq6yeS4lfcn-7" edge="1">
          <mxGeometry relative="1" as="geometry" />
        </mxCell>
        <mxCell id="tB7VLj_1fxb0ntuLeQnr-72" value="未来" style="rounded=0;whiteSpace=wrap;html=1;" parent="1" vertex="1">
          <mxGeometry x="1039.5" y="-160" width="80" height="40" as="geometry" />
        </mxCell>
        <mxCell id="tB7VLj_1fxb0ntuLeQnr-76" value="改变习惯" style="rounded=0;whiteSpace=wrap;html=1;" parent="1" vertex="1">
          <mxGeometry x="1200.5" y="-480" width="80" height="40" as="geometry" />
        </mxCell>
        <mxCell id="tB7VLj_1fxb0ntuLeQnr-77" value="掌控情绪" style="rounded=0;whiteSpace=wrap;html=1;" parent="1" vertex="1">
          <mxGeometry x="1201" y="-240" width="80" height="40" as="geometry" />
        </mxCell>
        <mxCell id="tB7VLj_1fxb0ntuLeQnr-78" value="设计系统" style="rounded=0;whiteSpace=wrap;html=1;" parent="1" vertex="1">
          <mxGeometry x="1200.5" y="-160" width="80" height="40" as="geometry" />
        </mxCell>
        <mxCell id="HAOmo5m4X4N3UOVxJmDS-1" value="矛盾&amp;amp;内耗" style="rounded=0;whiteSpace=wrap;html=1;" parent="1" vertex="1">
          <mxGeometry x="400" y="-520" width="80" height="40" as="geometry" />
        </mxCell>
        <mxCell id="w1q24iZh5yq6yeS4lfcn-3" value="改变信念" style="rounded=0;whiteSpace=wrap;html=1;" parent="1" vertex="1">
          <mxGeometry x="1201" y="-400" width="80" height="40" as="geometry" />
        </mxCell>
        <mxCell id="w1q24iZh5yq6yeS4lfcn-5" value="掌控行动" style="rounded=0;whiteSpace=wrap;html=1;" parent="1" vertex="1">
          <mxGeometry x="1201" y="-320" width="80" height="40" as="geometry" />
        </mxCell>
        <mxCell id="w1q24iZh5yq6yeS4lfcn-7" value="设计人生" style="rounded=0;whiteSpace=wrap;html=1;" parent="1" vertex="1">
          <mxGeometry x="1201" y="-80" width="80" height="40" as="geometry" />
        </mxCell>
        <mxCell id="w1q24iZh5yq6yeS4lfcn-9" value="人生目标" style="rounded=0;whiteSpace=wrap;html=1;" parent="1" vertex="1">
          <mxGeometry x="1201" y="-960" width="80" height="40" as="geometry" />
        </mxCell>
        <mxCell id="w1q24iZh5yq6yeS4lfcn-11" value="才干优势" style="rounded=0;whiteSpace=wrap;html=1;" parent="1" vertex="1">
          <mxGeometry x="1201" y="-800" width="80" height="40" as="geometry" />
        </mxCell>
        <mxCell id="w1q24iZh5yq6yeS4lfcn-13" value="处世原则" style="rounded=0;whiteSpace=wrap;html=1;" parent="1" vertex="1">
          <mxGeometry x="1201" y="-640" width="80" height="40" as="geometry" />
        </mxCell>
        <mxCell id="w1q24iZh5yq6yeS4lfcn-18" style="edgeStyle=orthogonalEdgeStyle;rounded=0;orthogonalLoop=1;jettySize=auto;html=1;entryX=0.5;entryY=0;entryDx=0;entryDy=0;" parent="1" source="w1q24iZh5yq6yeS4lfcn-17" target="tB7VLj_1fxb0ntuLeQnr-1" edge="1">
          <mxGeometry relative="1" as="geometry" />
        </mxCell>
        <mxCell id="w1q24iZh5yq6yeS4lfcn-19" style="edgeStyle=orthogonalEdgeStyle;rounded=0;orthogonalLoop=1;jettySize=auto;html=1;entryX=0.5;entryY=0;entryDx=0;entryDy=0;" parent="1" source="w1q24iZh5yq6yeS4lfcn-17" target="tB7VLj_1fxb0ntuLeQnr-2" edge="1">
          <mxGeometry relative="1" as="geometry" />
        </mxCell>
        <mxCell id="w1q24iZh5yq6yeS4lfcn-17" value="人生重启计划" style="rounded=0;whiteSpace=wrap;html=1;" parent="1" vertex="1">
          <mxGeometry x="620" y="-630" width="120" height="50" as="geometry" />
        </mxCell>
      </root>
    </mxGraphModel>
  </diagram>
  <diagram id="n_hd2hHt20_mHgI25ARG" name="第 2 页">
    <mxGraphModel dx="1134" dy="1762" grid="1" gridSize="10" guides="1" tooltips="1" connect="1" arrows="1" fold="1" page="1" pageScale="1" pageWidth="827" pageHeight="1169" math="0" shadow="0">
      <root>
        <mxCell id="0" />
        <mxCell id="1" parent="0" />
        <mxCell id="ZLlq1ajVZnvqQQd50YUT-1" style="edgeStyle=orthogonalEdgeStyle;rounded=0;orthogonalLoop=1;jettySize=auto;html=1;" edge="1" parent="1" source="ZLlq1ajVZnvqQQd50YUT-2" target="ZLlq1ajVZnvqQQd50YUT-5">
          <mxGeometry relative="1" as="geometry" />
        </mxCell>
        <mxCell id="ZLlq1ajVZnvqQQd50YUT-2" value="成为更好的&lt;br&gt;自己" style="rounded=0;whiteSpace=wrap;html=1;" vertex="1" parent="1">
          <mxGeometry x="560" y="-520" width="80" height="40" as="geometry" />
        </mxCell>
        <mxCell id="ZLlq1ajVZnvqQQd50YUT-3" style="edgeStyle=orthogonalEdgeStyle;rounded=0;orthogonalLoop=1;jettySize=auto;html=1;entryX=0;entryY=0.5;entryDx=0;entryDy=0;" edge="1" parent="1" source="ZLlq1ajVZnvqQQd50YUT-5" target="ZLlq1ajVZnvqQQd50YUT-19">
          <mxGeometry relative="1" as="geometry" />
        </mxCell>
        <mxCell id="ZLlq1ajVZnvqQQd50YUT-4" style="edgeStyle=orthogonalEdgeStyle;rounded=0;orthogonalLoop=1;jettySize=auto;html=1;" edge="1" parent="1" source="ZLlq1ajVZnvqQQd50YUT-5" target="ZLlq1ajVZnvqQQd50YUT-23">
          <mxGeometry relative="1" as="geometry" />
        </mxCell>
        <mxCell id="ZLlq1ajVZnvqQQd50YUT-5" value="更好的成为&lt;br&gt;自己" style="rounded=0;whiteSpace=wrap;html=1;" vertex="1" parent="1">
          <mxGeometry x="720" y="-520" width="80" height="40" as="geometry" />
        </mxCell>
        <mxCell id="ZLlq1ajVZnvqQQd50YUT-7" value="优绩主义" style="rounded=0;whiteSpace=wrap;html=1;" vertex="1" parent="1">
          <mxGeometry x="400" y="-600" width="80" height="40" as="geometry" />
        </mxCell>
        <mxCell id="ZLlq1ajVZnvqQQd50YUT-8" value="规训" style="edgeStyle=orthogonalEdgeStyle;rounded=0;orthogonalLoop=1;jettySize=auto;html=1;entryX=0;entryY=0.5;entryDx=0;entryDy=0;" edge="1" parent="1" target="ZLlq1ajVZnvqQQd50YUT-2">
          <mxGeometry relative="1" as="geometry">
            <mxPoint x="480" y="-580" as="sourcePoint" />
          </mxGeometry>
        </mxCell>
        <mxCell id="ZLlq1ajVZnvqQQd50YUT-9" value="" style="edgeStyle=orthogonalEdgeStyle;rounded=0;orthogonalLoop=1;jettySize=auto;html=1;" edge="1" parent="1" target="ZLlq1ajVZnvqQQd50YUT-48">
          <mxGeometry relative="1" as="geometry">
            <mxPoint x="440" y="-560" as="sourcePoint" />
          </mxGeometry>
        </mxCell>
        <mxCell id="ZLlq1ajVZnvqQQd50YUT-11" value="诱惑" style="edgeStyle=orthogonalEdgeStyle;rounded=0;orthogonalLoop=1;jettySize=auto;html=1;" edge="1" parent="1" target="ZLlq1ajVZnvqQQd50YUT-2">
          <mxGeometry relative="1" as="geometry">
            <Array as="points">
              <mxPoint x="520" y="-420" />
              <mxPoint x="520" y="-500" />
            </Array>
            <mxPoint x="480" y="-420" as="sourcePoint" />
          </mxGeometry>
        </mxCell>
        <mxCell id="ZLlq1ajVZnvqQQd50YUT-12" value="" style="edgeStyle=orthogonalEdgeStyle;rounded=0;orthogonalLoop=1;jettySize=auto;html=1;" edge="1" parent="1" target="ZLlq1ajVZnvqQQd50YUT-48">
          <mxGeometry relative="1" as="geometry">
            <mxPoint x="440" y="-440" as="sourcePoint" />
          </mxGeometry>
        </mxCell>
        <mxCell id="ZLlq1ajVZnvqQQd50YUT-15" value="消费主义" style="rounded=0;whiteSpace=wrap;html=1;" vertex="1" parent="1">
          <mxGeometry x="400" y="-440" width="80" height="40" as="geometry" />
        </mxCell>
        <mxCell id="ZLlq1ajVZnvqQQd50YUT-16" style="edgeStyle=orthogonalEdgeStyle;rounded=0;orthogonalLoop=1;jettySize=auto;html=1;entryX=0;entryY=0.5;entryDx=0;entryDy=0;" edge="1" parent="1" source="ZLlq1ajVZnvqQQd50YUT-19" target="ZLlq1ajVZnvqQQd50YUT-26">
          <mxGeometry relative="1" as="geometry" />
        </mxCell>
        <mxCell id="ZLlq1ajVZnvqQQd50YUT-17" style="edgeStyle=orthogonalEdgeStyle;rounded=0;orthogonalLoop=1;jettySize=auto;html=1;entryX=0;entryY=0.5;entryDx=0;entryDy=0;" edge="1" parent="1" source="ZLlq1ajVZnvqQQd50YUT-19" target="ZLlq1ajVZnvqQQd50YUT-29">
          <mxGeometry relative="1" as="geometry" />
        </mxCell>
        <mxCell id="ZLlq1ajVZnvqQQd50YUT-18" style="edgeStyle=orthogonalEdgeStyle;rounded=0;orthogonalLoop=1;jettySize=auto;html=1;" edge="1" parent="1" source="ZLlq1ajVZnvqQQd50YUT-19" target="ZLlq1ajVZnvqQQd50YUT-32">
          <mxGeometry relative="1" as="geometry" />
        </mxCell>
        <mxCell id="ZLlq1ajVZnvqQQd50YUT-19" value="自我觉察" style="rounded=0;whiteSpace=wrap;html=1;fillColor=#dae8fc;strokeColor=#6c8ebf;" vertex="1" parent="1">
          <mxGeometry x="880" y="-560" width="80" height="40" as="geometry" />
        </mxCell>
        <mxCell id="ZLlq1ajVZnvqQQd50YUT-20" style="edgeStyle=orthogonalEdgeStyle;rounded=0;orthogonalLoop=1;jettySize=auto;html=1;" edge="1" parent="1" source="ZLlq1ajVZnvqQQd50YUT-23" target="ZLlq1ajVZnvqQQd50YUT-38">
          <mxGeometry relative="1" as="geometry" />
        </mxCell>
        <mxCell id="ZLlq1ajVZnvqQQd50YUT-21" style="edgeStyle=orthogonalEdgeStyle;rounded=0;orthogonalLoop=1;jettySize=auto;html=1;entryX=0;entryY=0.5;entryDx=0;entryDy=0;" edge="1" parent="1" source="ZLlq1ajVZnvqQQd50YUT-23" target="ZLlq1ajVZnvqQQd50YUT-41">
          <mxGeometry relative="1" as="geometry" />
        </mxCell>
        <mxCell id="ZLlq1ajVZnvqQQd50YUT-22" style="edgeStyle=orthogonalEdgeStyle;rounded=0;orthogonalLoop=1;jettySize=auto;html=1;entryX=0;entryY=0.5;entryDx=0;entryDy=0;" edge="1" parent="1" source="ZLlq1ajVZnvqQQd50YUT-23" target="ZLlq1ajVZnvqQQd50YUT-44">
          <mxGeometry relative="1" as="geometry" />
        </mxCell>
        <mxCell id="ZLlq1ajVZnvqQQd50YUT-23" value="自我实现" style="rounded=0;whiteSpace=wrap;html=1;fillColor=#ffe6cc;strokeColor=#d79b00;" vertex="1" parent="1">
          <mxGeometry x="880" y="-480" width="80" height="40" as="geometry" />
        </mxCell>
        <mxCell id="ZLlq1ajVZnvqQQd50YUT-25" style="edgeStyle=orthogonalEdgeStyle;rounded=0;orthogonalLoop=1;jettySize=auto;html=1;entryX=0;entryY=0.5;entryDx=0;entryDy=0;" edge="1" parent="1" source="ZLlq1ajVZnvqQQd50YUT-26" target="ZLlq1ajVZnvqQQd50YUT-52">
          <mxGeometry relative="1" as="geometry" />
        </mxCell>
        <mxCell id="ZLlq1ajVZnvqQQd50YUT-26" value="愿景" style="rounded=0;whiteSpace=wrap;html=1;" vertex="1" parent="1">
          <mxGeometry x="1039.5" y="-720" width="80" height="40" as="geometry" />
        </mxCell>
        <mxCell id="ZLlq1ajVZnvqQQd50YUT-28" style="edgeStyle=orthogonalEdgeStyle;rounded=0;orthogonalLoop=1;jettySize=auto;html=1;entryX=0;entryY=0.5;entryDx=0;entryDy=0;" edge="1" parent="1" source="ZLlq1ajVZnvqQQd50YUT-29" target="ZLlq1ajVZnvqQQd50YUT-53">
          <mxGeometry relative="1" as="geometry" />
        </mxCell>
        <mxCell id="ZLlq1ajVZnvqQQd50YUT-29" value="天赋" style="rounded=0;whiteSpace=wrap;html=1;" vertex="1" parent="1">
          <mxGeometry x="1040" y="-640" width="80" height="40" as="geometry" />
        </mxCell>
        <mxCell id="ZLlq1ajVZnvqQQd50YUT-31" style="edgeStyle=orthogonalEdgeStyle;rounded=0;orthogonalLoop=1;jettySize=auto;html=1;entryX=0;entryY=0.5;entryDx=0;entryDy=0;" edge="1" parent="1" source="ZLlq1ajVZnvqQQd50YUT-32" target="ZLlq1ajVZnvqQQd50YUT-54">
          <mxGeometry relative="1" as="geometry" />
        </mxCell>
        <mxCell id="ZLlq1ajVZnvqQQd50YUT-32" value="信念" style="rounded=0;whiteSpace=wrap;html=1;" vertex="1" parent="1">
          <mxGeometry x="1040" y="-560" width="80" height="40" as="geometry" />
        </mxCell>
        <mxCell id="ZLlq1ajVZnvqQQd50YUT-36" style="edgeStyle=orthogonalEdgeStyle;rounded=0;orthogonalLoop=1;jettySize=auto;html=1;" edge="1" parent="1" source="ZLlq1ajVZnvqQQd50YUT-38" target="ZLlq1ajVZnvqQQd50YUT-45">
          <mxGeometry relative="1" as="geometry" />
        </mxCell>
        <mxCell id="ZLlq1ajVZnvqQQd50YUT-38" value="过去" style="rounded=0;whiteSpace=wrap;html=1;" vertex="1" parent="1">
          <mxGeometry x="1040" y="-480" width="80" height="40" as="geometry" />
        </mxCell>
        <mxCell id="ZLlq1ajVZnvqQQd50YUT-40" style="edgeStyle=orthogonalEdgeStyle;rounded=0;orthogonalLoop=1;jettySize=auto;html=1;entryX=0;entryY=0.5;entryDx=0;entryDy=0;" edge="1" parent="1" source="ZLlq1ajVZnvqQQd50YUT-41" target="ZLlq1ajVZnvqQQd50YUT-50">
          <mxGeometry relative="1" as="geometry" />
        </mxCell>
        <mxCell id="ZLlq1ajVZnvqQQd50YUT-41" value="现在" style="rounded=0;whiteSpace=wrap;html=1;" vertex="1" parent="1">
          <mxGeometry x="1040" y="-400" width="80" height="40" as="geometry" />
        </mxCell>
        <mxCell id="ZLlq1ajVZnvqQQd50YUT-42" style="edgeStyle=orthogonalEdgeStyle;rounded=0;orthogonalLoop=1;jettySize=auto;html=1;" edge="1" parent="1" source="ZLlq1ajVZnvqQQd50YUT-44" target="ZLlq1ajVZnvqQQd50YUT-47">
          <mxGeometry relative="1" as="geometry" />
        </mxCell>
        <mxCell id="ZLlq1ajVZnvqQQd50YUT-44" value="未来" style="rounded=0;whiteSpace=wrap;html=1;" vertex="1" parent="1">
          <mxGeometry x="1039.5" y="-320" width="80" height="40" as="geometry" />
        </mxCell>
        <mxCell id="ZLlq1ajVZnvqQQd50YUT-45" value="改变习惯" style="rounded=0;whiteSpace=wrap;html=1;" vertex="1" parent="1">
          <mxGeometry x="1200.5" y="-480" width="80" height="40" as="geometry" />
        </mxCell>
        <mxCell id="ZLlq1ajVZnvqQQd50YUT-47" value="设计目标" style="rounded=0;whiteSpace=wrap;html=1;" vertex="1" parent="1">
          <mxGeometry x="1200.5" y="-320" width="80" height="40" as="geometry" />
        </mxCell>
        <mxCell id="ZLlq1ajVZnvqQQd50YUT-48" value="矛盾&amp;amp;内耗" style="rounded=0;whiteSpace=wrap;html=1;" vertex="1" parent="1">
          <mxGeometry x="400" y="-520" width="80" height="40" as="geometry" />
        </mxCell>
        <mxCell id="ZLlq1ajVZnvqQQd50YUT-50" value="掌控行动" style="rounded=0;whiteSpace=wrap;html=1;" vertex="1" parent="1">
          <mxGeometry x="1201.5" y="-400" width="80" height="40" as="geometry" />
        </mxCell>
        <mxCell id="ZLlq1ajVZnvqQQd50YUT-52" value="人生目标" style="rounded=0;whiteSpace=wrap;html=1;" vertex="1" parent="1">
          <mxGeometry x="1200.5" y="-720" width="80" height="40" as="geometry" />
        </mxCell>
        <mxCell id="ZLlq1ajVZnvqQQd50YUT-53" value="才干优势" style="rounded=0;whiteSpace=wrap;html=1;" vertex="1" parent="1">
          <mxGeometry x="1201" y="-640" width="80" height="40" as="geometry" />
        </mxCell>
        <mxCell id="ZLlq1ajVZnvqQQd50YUT-54" value="处世原则" style="rounded=0;whiteSpace=wrap;html=1;" vertex="1" parent="1">
          <mxGeometry x="1200.5" y="-560" width="80" height="40" as="geometry" />
        </mxCell>
        <mxCell id="ZLlq1ajVZnvqQQd50YUT-55" style="edgeStyle=orthogonalEdgeStyle;rounded=0;orthogonalLoop=1;jettySize=auto;html=1;entryX=0.5;entryY=0;entryDx=0;entryDy=0;" edge="1" parent="1" source="ZLlq1ajVZnvqQQd50YUT-57" target="ZLlq1ajVZnvqQQd50YUT-2">
          <mxGeometry relative="1" as="geometry" />
        </mxCell>
        <mxCell id="ZLlq1ajVZnvqQQd50YUT-56" style="edgeStyle=orthogonalEdgeStyle;rounded=0;orthogonalLoop=1;jettySize=auto;html=1;entryX=0.5;entryY=0;entryDx=0;entryDy=0;" edge="1" parent="1" source="ZLlq1ajVZnvqQQd50YUT-57" target="ZLlq1ajVZnvqQQd50YUT-5">
          <mxGeometry relative="1" as="geometry" />
        </mxCell>
        <mxCell id="ZLlq1ajVZnvqQQd50YUT-57" value="人生重启计划" style="rounded=0;whiteSpace=wrap;html=1;fillColor=#e1d5e7;strokeColor=#9673a6;" vertex="1" parent="1">
          <mxGeometry x="620" y="-630" width="120" height="50" as="geometry" />
        </mxCell>
      </root>
    </mxGraphModel>
  </diagram>
  <diagram id="zkSAL_l8tmtwUwT76Lhv" name="第 3 页">
    <mxGraphModel dx="-33" dy="1584" grid="1" gridSize="10" guides="1" tooltips="1" connect="1" arrows="1" fold="1" page="1" pageScale="1" pageWidth="827" pageHeight="1169" math="0" shadow="0">
      <root>
        <mxCell id="0" />
        <mxCell id="1" parent="0" />
        <mxCell id="QaMYMjbSU6sAdfipwnuK-14" style="edgeStyle=orthogonalEdgeStyle;rounded=0;orthogonalLoop=1;jettySize=auto;html=1;" edge="1" parent="1" source="QaMYMjbSU6sAdfipwnuK-1" target="QaMYMjbSU6sAdfipwnuK-13">
          <mxGeometry relative="1" as="geometry" />
        </mxCell>
        <mxCell id="QaMYMjbSU6sAdfipwnuK-1" value="轨道的崩塌" style="rounded=0;whiteSpace=wrap;html=1;" vertex="1" parent="1">
          <mxGeometry x="1040" y="-800" width="80" height="40" as="geometry" />
        </mxCell>
        <mxCell id="QaMYMjbSU6sAdfipwnuK-11" style="edgeStyle=orthogonalEdgeStyle;rounded=0;orthogonalLoop=1;jettySize=auto;html=1;" edge="1" parent="1" source="QaMYMjbSU6sAdfipwnuK-2" target="QaMYMjbSU6sAdfipwnuK-10">
          <mxGeometry relative="1" as="geometry" />
        </mxCell>
        <mxCell id="QaMYMjbSU6sAdfipwnuK-2" value="迈入旷野" style="rounded=0;whiteSpace=wrap;html=1;" vertex="1" parent="1">
          <mxGeometry x="1040" y="-600" width="80" height="40" as="geometry" />
        </mxCell>
        <mxCell id="QaMYMjbSU6sAdfipwnuK-6" value="属于自己的&lt;br&gt;轨道" style="rounded=0;whiteSpace=wrap;html=1;" vertex="1" parent="1">
          <mxGeometry x="1040" y="-400" width="80" height="40" as="geometry" />
        </mxCell>
        <mxCell id="QaMYMjbSU6sAdfipwnuK-20" style="edgeStyle=orthogonalEdgeStyle;rounded=0;orthogonalLoop=1;jettySize=auto;html=1;entryX=0.5;entryY=0;entryDx=0;entryDy=0;" edge="1" parent="1" source="QaMYMjbSU6sAdfipwnuK-8" target="QaMYMjbSU6sAdfipwnuK-19">
          <mxGeometry relative="1" as="geometry" />
        </mxCell>
        <mxCell id="QaMYMjbSU6sAdfipwnuK-8" value="迄今为止的&lt;br&gt;人生规划" style="rounded=0;whiteSpace=wrap;html=1;" vertex="1" parent="1">
          <mxGeometry x="1040" y="-960" width="80" height="40" as="geometry" />
        </mxCell>
        <mxCell id="QaMYMjbSU6sAdfipwnuK-12" style="edgeStyle=orthogonalEdgeStyle;rounded=0;orthogonalLoop=1;jettySize=auto;html=1;entryX=0.5;entryY=0;entryDx=0;entryDy=0;" edge="1" parent="1" source="QaMYMjbSU6sAdfipwnuK-10" target="QaMYMjbSU6sAdfipwnuK-6">
          <mxGeometry relative="1" as="geometry" />
        </mxCell>
        <mxCell id="QaMYMjbSU6sAdfipwnuK-23" style="edgeStyle=orthogonalEdgeStyle;rounded=0;orthogonalLoop=1;jettySize=auto;html=1;entryX=0.5;entryY=1;entryDx=0;entryDy=0;" edge="1" parent="1" source="QaMYMjbSU6sAdfipwnuK-10" target="QaMYMjbSU6sAdfipwnuK-16">
          <mxGeometry relative="1" as="geometry" />
        </mxCell>
        <mxCell id="QaMYMjbSU6sAdfipwnuK-10" value="&lt;span style=&quot;color: rgb(0, 0, 0); font-family: Helvetica; font-size: 12px; font-style: normal; font-variant-ligatures: normal; font-variant-caps: normal; font-weight: 400; letter-spacing: normal; orphans: 2; text-align: center; text-indent: 0px; text-transform: none; widows: 2; word-spacing: 0px; -webkit-text-stroke-width: 0px; white-space: normal; background-color: rgb(251, 251, 251); text-decoration-thickness: initial; text-decoration-style: initial; text-decoration-color: initial; display: inline !important; float: none;&quot;&gt;能否&lt;br&gt;自我觉察&lt;/span&gt;" style="rhombus;whiteSpace=wrap;html=1;" vertex="1" parent="1">
          <mxGeometry x="1040" y="-520" width="80" height="80" as="geometry" />
        </mxCell>
        <mxCell id="QaMYMjbSU6sAdfipwnuK-15" style="edgeStyle=orthogonalEdgeStyle;rounded=0;orthogonalLoop=1;jettySize=auto;html=1;" edge="1" parent="1" source="QaMYMjbSU6sAdfipwnuK-13" target="QaMYMjbSU6sAdfipwnuK-2">
          <mxGeometry relative="1" as="geometry" />
        </mxCell>
        <mxCell id="QaMYMjbSU6sAdfipwnuK-17" style="edgeStyle=orthogonalEdgeStyle;rounded=0;orthogonalLoop=1;jettySize=auto;html=1;entryX=1;entryY=0.5;entryDx=0;entryDy=0;" edge="1" parent="1" source="QaMYMjbSU6sAdfipwnuK-13" target="QaMYMjbSU6sAdfipwnuK-16">
          <mxGeometry relative="1" as="geometry" />
        </mxCell>
        <mxCell id="QaMYMjbSU6sAdfipwnuK-13" value="能否适应&lt;br&gt;内卷" style="rhombus;whiteSpace=wrap;html=1;" vertex="1" parent="1">
          <mxGeometry x="1040" y="-720" width="80" height="80" as="geometry" />
        </mxCell>
        <mxCell id="QaMYMjbSU6sAdfipwnuK-22" style="edgeStyle=orthogonalEdgeStyle;rounded=0;orthogonalLoop=1;jettySize=auto;html=1;entryX=0;entryY=0.5;entryDx=0;entryDy=0;" edge="1" parent="1" source="QaMYMjbSU6sAdfipwnuK-16" target="QaMYMjbSU6sAdfipwnuK-19">
          <mxGeometry relative="1" as="geometry">
            <Array as="points">
              <mxPoint x="920" y="-860" />
            </Array>
          </mxGeometry>
        </mxCell>
        <mxCell id="QaMYMjbSU6sAdfipwnuK-16" value="回归轨道" style="rounded=0;whiteSpace=wrap;html=1;" vertex="1" parent="1">
          <mxGeometry x="880" y="-700" width="80" height="40" as="geometry" />
        </mxCell>
        <mxCell id="QaMYMjbSU6sAdfipwnuK-21" style="edgeStyle=orthogonalEdgeStyle;rounded=0;orthogonalLoop=1;jettySize=auto;html=1;" edge="1" parent="1" source="QaMYMjbSU6sAdfipwnuK-19" target="QaMYMjbSU6sAdfipwnuK-1">
          <mxGeometry relative="1" as="geometry" />
        </mxCell>
        <mxCell id="QaMYMjbSU6sAdfipwnuK-19" value="社会变革" style="rounded=0;whiteSpace=wrap;html=1;" vertex="1" parent="1">
          <mxGeometry x="1040" y="-880" width="80" height="40" as="geometry" />
        </mxCell>
      </root>
    </mxGraphModel>
  </diagram>
</mxfile>
